ffmpeg version git-2016-04-11-901b0f1 Copyright (c) 2000-2016 the FFmpeg developers
  built with gcc 4.8 (Ubuntu 4.8.4-2ubuntu1~14.04.1)
  configuration: --extra-libs=-ldl --enable-gpl --enable-libass --enable-libfdk-aac --enable-libmp3lame --enable-libopus --enable-libtheora --enable-libvorbis --enable-libvpx --enable-libx264 --enable-libx265 --enable-nonfree
  libavutil      55. 20.100 / 55. 20.100
  libavcodec     57. 34.100 / 57. 34.100
  libavformat    57. 33.100 / 57. 33.100
  libavdevice    57.  0.101 / 57.  0.101
  libavfilter     6. 41.100 /  6. 41.100
  libswscale      4.  1.100 /  4.  1.100
  libswresample   2.  0.101 /  2.  0.101
  libpostproc    54.  0.100 / 54.  0.100
[h264 @ 0x3ff80a0] Increasing reorder buffer to 1
Input #0, mov,mp4,m4a,3gp,3g2,mj2, from '558823262_iphone5s_video.mp4':
  Metadata:
    major_brand     : mp42
    minor_version   : 1
    compatible_brands: mp41mp42isomhlsf
    creation_time   : 2014-11-12 21:43:37
  Duration: 00:00:30.06, start: 0.033367, bitrate: 288 kb/s
    Stream #0:0(und): Video: h264 (High) (avc1 / 0x31637661), yuv420p(tv, bt709), 306x544 [SAR 1:1 DAR 9:16], 284 kb/s, 29.97 fps, 29.97 tbr, 30k tbn (default)
    Metadata:
      creation_time   : 2014-11-12 21:43:37
      handler_name    : Core Media Video
Input #1, mov,mp4,m4a,3gp,3g2,mj2, from '558823262_iphone5s_audio.mp4':
  Metadata:
    major_brand     : mp42
    minor_version   : 1
    compatible_brands: mp41mp42isomhlsf
    creation_time   : 2014-11-12 21:42:35
  Duration: 00:00:30.17, start: 0.000000, bitrate: 67 kb/s
    Stream #1:0(und): Audio: aac (HE-AAC) (mp4a / 0x6134706D), 48000 Hz, stereo, fltp, 66 kb/s (default)
    Metadata:
      creation_time   : 2014-11-12 21:42:35
      handler_name    : Core Media Audio
[libx264 @ 0x4078c40] using SAR=1/1
[libx264 @ 0x4078c40] using cpu capabilities: MMX2 SSE2Fast SSSE3 SSE4.2 AVX
[libx264 @ 0x4078c40] profile High, level 3.0
[libx264 @ 0x4078c40] 264 - core 148 r2 a01e339 - H.264/MPEG-4 AVC codec - Copyleft 2003-2016 - http://www.videolan.org/x264.html - options: cabac=1 ref=3 deblock=1:0:0 analyse=0x3:0x113 me=hex subme=7 psy=1 psy_rd=1.00:0.00 mixed_ref=1 me_range=16 chroma_me=1 trellis=1 8x8dct=1 cqm=0 deadzone=21,11 fast_pskip=1 chroma_qp_offset=-2 threads=1 lookahead_threads=1 sliced_threads=0 nr=0 decimate=1 interlaced=0 bluray_compat=0 constrained_intra=0 bframes=3 b_pyramid=2 b_adapt=1 b_bias=0 direct=1 weightb=1 open_gop=0 weightp=2 keyint=250 keyint_min=25 scenecut=40 intra_refresh=0 rc_lookahead=40 rc=crf mbtree=1 crf=23.0 qcomp=0.60 qpmin=0 qpmax=69 qpstep=4 ip_ratio=1.40 aq=1:1.00
[mp4 @ 0x4029380] Using AVStream.codec to pass codec parameters to muxers is deprecated, use AVStream.codecpar instead.
    Last message repeated 1 times
Output #0, mp4, to '558823262_iphone5s.mp4':
  Metadata:
    major_brand     : mp42
    minor_version   : 1
    compatible_brands: mp41mp42isomhlsf
    encoder         : Lavf57.33.100
    Stream #0:0(und): Video: h264 ([33][0][0][0] / 0x0021), yuv420p, 306x544 [SAR 1:1 DAR 9:16], q=2-31, 29.97 fps, 30k tbn (default)
    Metadata:
      creation_time   : 2014-11-12 21:43:37
      handler_name    : Core Media Video
      encoder         : Lavc57.34.100 libx264
    Side data:
      cpb: bitrate max/min/avg: 0/0/0 buffer size: 0 vbv_delay: -1
    Stream #0:1(und): Audio: aac (LC) ([64][0][0][0] / 0x0040), 48000 Hz, stereo, fltp, 128 kb/s (default)
    Metadata:
      creation_time   : 2014-11-12 21:42:35
      handler_name    : Core Media Audio
      encoder         : Lavc57.34.100 aac
Stream mapping:
  Stream #0:0 -> #0:0 (h264 (native) -> h264 (libx264))
  Stream #1:0 -> #0:1 (aac (native) -> aac (native))
Press [q] to stop, [?] for help
frame=   78 fps=0.0 q=29.0 size=      45kB time=00:00:01.19 bitrate= 307.0kbits/s speed=2.39x    frame=  103 fps=103 q=29.0 size=     116kB time=00:00:02.00 bitrate= 475.0kbits/s speed=   2x    frame=  130 fps= 85 q=29.0 size=     168kB time=00:00:02.86 bitrate= 480.3kbits/s speed=1.89x    frame=  159 fps= 78 q=29.0 size=     221kB time=00:00:03.88 bitrate= 465.6kbits/s speed=1.91x    frame=  183 fps= 72 q=29.0 size=     312kB time=00:00:04.69 bitrate= 543.9kbits/s speed=1.85x    frame=  228 fps= 75 q=29.0 size=     406kB time=00:00:06.18 bitrate= 537.0kbits/s speed=2.03x    frame=  271 fps= 76 q=29.0 size=     469kB time=00:00:07.63 bitrate= 502.8kbits/s speed=2.14x    frame=  320 fps= 78 q=29.0 size=     538kB time=00:00:09.21 bitrate= 478.5kbits/s speed=2.26x    frame=  383 fps= 84 q=29.0 size=     581kB time=00:00:11.34 bitrate= 419.2kbits/s speed=2.48x    frame=  429 fps= 84 q=29.0 size=     689kB time=00:00:12.88 bitrate= 438.0kbits/s speed=2.53x    frame=  465 fps= 83 q=29.0 size=     754kB time=00:00:14.08 bitrate= 438.4kbits/s speed=2.52x    frame=  517 fps= 85 q=29.0 size=     830kB time=00:00:15.82 bitrate= 429.3kbits/s speed= 2.6x    frame=  571 fps= 86 q=29.0 size=     878kB time=00:00:17.62 bitrate= 408.4kbits/s speed=2.67x    frame=  621 fps= 87 q=29.0 size=     928kB time=00:00:19.25 bitrate= 394.7kbits/s speed=2.71x    frame=  667 fps= 88 q=29.0 size=     966kB time=00:00:20.78 bitrate= 380.6kbits/s speed=2.73x    frame=  692 fps= 85 q=29.0 size=    1055kB time=00:00:21.67 bitrate= 398.7kbits/s speed=2.67x    frame=  727 fps= 84 q=29.0 size=    1115kB time=00:00:22.78 bitrate= 400.7kbits/s speed=2.64x    frame=  765 fps= 84 q=29.0 size=    1167kB time=00:00:24.10 bitrate= 396.4kbits/s speed=2.64x    frame=  796 fps= 83 q=29.0 size=    1224kB time=00:00:25.09 bitrate= 399.7kbits/s speed=2.61x    frame=  820 fps= 81 q=29.0 size=    1292kB time=00:00:25.94 bitrate= 407.9kbits/s speed=2.56x    frame=  851 fps= 80 q=29.0 size=    1340kB time=00:00:26.96 bitrate= 407.1kbits/s speed=2.53x    frame=  884 fps= 79 q=29.0 size=    1390kB time=00:00:28.03 bitrate= 406.1kbits/s speed=2.52x    frame=  901 fps= 76 q=29.0 Lsize=    1521kB time=00:00:30.16 bitrate= 413.0kbits/s speed=2.55x    
video:1015kB audio:473kB subtitle:0kB other streams:0kB global headers:0kB muxing overhead: 2.229446%
[libx264 @ 0x4078c40] frame I:9     Avg QP:19.87  size: 14522
[libx264 @ 0x4078c40] frame P:308   Avg QP:21.83  size:  2630
[libx264 @ 0x4078c40] frame B:584   Avg QP:28.09  size:   167
[libx264 @ 0x4078c40] consecutive B-frames:  9.5%  9.1%  9.0% 72.4%
[libx264 @ 0x4078c40] mb I  I16..4: 20.8% 48.5% 30.8%
[libx264 @ 0x4078c40] mb P  I16..4:  3.1%  6.4%  0.8%  P16..4: 29.7%  7.6%  4.3%  0.0%  0.0%    skip:48.1%
[libx264 @ 0x4078c40] mb B  I16..4:  0.1%  0.1%  0.0%  B16..8: 12.5%  0.5%  0.1%  direct: 1.3%  skip:85.5%  L0:34.4% L1:61.8% BI: 3.8%
[libx264 @ 0x4078c40] 8x8 transform intra:58.6% inter:69.0%
[libx264 @ 0x4078c40] coded y,uvDC,uvAC intra: 36.0% 61.9% 17.9% inter: 6.9% 7.6% 0.6%
[libx264 @ 0x4078c40] i16 v,h,dc,p: 41% 21%  7% 32%
[libx264 @ 0x4078c40] i8 v,h,dc,ddl,ddr,vr,hd,vl,hu: 26% 23% 28%  3%  4%  4%  5%  4%  4%
[libx264 @ 0x4078c40] i4 v,h,dc,ddl,ddr,vr,hd,vl,hu: 28% 27% 12%  5%  6%  6%  5%  6%  5%
[libx264 @ 0x4078c40] i8c dc,h,v,p: 49% 22% 20%  8%
[libx264 @ 0x4078c40] Weighted P-Frames: Y:30.8% UV:15.9%
[libx264 @ 0x4078c40] ref P L0: 65.5% 16.2% 14.4%  3.4%  0.6%
[libx264 @ 0x4078c40] ref B L0: 83.8% 13.0%  3.2%
[libx264 @ 0x4078c40] ref B L1: 95.9%  4.1%
[libx264 @ 0x4078c40] kb/s:276.36
[aac @ 0x4079fc0] Qavg: 906.065
